<svg width="18" height="18" viewBox="0 0 18 18" fill="none" xmlns="http://www.w3.org/2000/svg">
<path d="M3.25647 1.05597L16.7797 14.58C16.9908 14.7909 17.1094 15.0771 17.1094 15.3755C17.1095 15.6738 16.991 15.96 16.7801 16.1711C16.5691 16.3821 16.283 16.5007 15.9846 16.5008C15.6862 16.5009 15.4 16.3824 15.189 16.1715L11.742 12.7237L9.08996 15.375L5.99997 12.285V14.25C5.99997 14.4489 5.92095 14.6396 5.7803 14.7803C5.63964 14.9209 5.44888 15 5.24997 15C5.05105 15 4.86029 14.9209 4.71964 14.7803C4.57898 14.6396 4.49997 14.4489 4.49997 14.25V11.25C4.49975 11.0588 4.42656 10.8749 4.29533 10.7359C4.1641 10.5969 3.98475 10.5133 3.79392 10.5021C3.60309 10.4909 3.41518 10.553 3.26859 10.6757C3.122 10.7984 3.02779 10.9724 3.00522 11.1622L2.99997 11.25V12C2.99997 12.1989 2.92095 12.3896 2.7803 12.5303C2.63964 12.6709 2.44888 12.75 2.24997 12.75C2.05105 12.75 1.86029 12.6709 1.71964 12.5303C1.57898 12.3896 1.49997 12.1989 1.49997 12V5.41047C1.46881 3.84514 2.05258 2.32998 3.12597 1.19022L3.25647 1.05597ZM3.43722 3.35847L3.39897 3.44097C3.17372 3.93856 3.04105 4.47305 3.00747 5.01822L2.99997 5.24997L2.99922 5.33997C3.00824 6.45304 3.43057 7.52305 4.18422 8.34222L4.31697 8.48097L9.08922 13.2532L11.211 11.1322L3.43722 3.35847Z" fill="#CD3939"/>
</svg>
